<svg width="191" height="16" viewBox="0 0 191 16" fill="none" xmlns="http://www.w3.org/2000/svg">
<path d="M13.0771 4.12695H9.87793V13H8.57227V4.12695H5.37988V3.04688H13.0771V4.12695ZM20.1797 8.39941H15.8662V11.9268H20.877V13H14.5537V3.04688H20.8086V4.12695H15.8662V7.32617H20.1797V8.39941ZM23.9189 13H22.6064V3.04688H23.9189V13ZM29.2578 8.56348C28.1322 8.23991 27.3118 7.84342 26.7969 7.37402C26.2865 6.90007 26.0312 6.31673 26.0312 5.62402C26.0312 4.84017 26.3434 4.19303 26.9678 3.68262C27.5967 3.16764 28.4124 2.91016 29.415 2.91016C30.0986 2.91016 30.707 3.04232 31.2402 3.30664C31.778 3.57096 32.1927 3.93555 32.4844 4.40039C32.7806 4.86523 32.9287 5.37337 32.9287 5.9248H31.6094C31.6094 5.32324 31.418 4.85156 31.0352 4.50977C30.6523 4.16341 30.1123 3.99023 29.415 3.99023C28.7679 3.99023 28.262 4.13379 27.8975 4.4209C27.5374 4.70345 27.3574 5.09766 27.3574 5.60352C27.3574 6.00911 27.5283 6.35319 27.8701 6.63574C28.2165 6.91374 28.8021 7.16895 29.627 7.40137C30.4564 7.63379 31.1035 7.89128 31.5684 8.17383C32.0378 8.45182 32.3841 8.77767 32.6074 9.15137C32.8353 9.52507 32.9492 9.96484 32.9492 10.4707C32.9492 11.2773 32.6348 11.9245 32.0059 12.4121C31.377 12.8952 30.5361 13.1367 29.4834 13.1367C28.7998 13.1367 28.1618 13.0068 27.5693 12.7471C26.9769 12.4827 26.5189 12.1227 26.1953 11.667C25.8763 11.2113 25.7168 10.694 25.7168 10.1152H27.0361C27.0361 10.7168 27.2572 11.193 27.6992 11.5439C28.1458 11.8903 28.7406 12.0635 29.4834 12.0635C30.1761 12.0635 30.707 11.9222 31.0762 11.6396C31.4453 11.3571 31.6299 10.972 31.6299 10.4844C31.6299 9.99674 31.459 9.62077 31.1172 9.35645C30.7754 9.08757 30.1556 8.82324 29.2578 8.56348ZM40.2637 8.39941H35.9502V11.9268H40.9609V13H34.6377V3.04688H40.8926V4.12695H35.9502V7.32617H40.2637V8.39941ZM42.5947 13V3.04688H45.4043C46.2702 3.04688 47.0358 3.23828 47.7012 3.62109C48.3665 4.00391 48.8792 4.5485 49.2393 5.25488C49.6038 5.96126 49.7884 6.77246 49.793 7.68848V8.32422C49.793 9.26302 49.6107 10.0856 49.2461 10.792C48.8861 11.4984 48.3688 12.0407 47.6943 12.4189C47.0244 12.7972 46.2428 12.9909 45.3496 13H42.5947ZM43.9072 4.12695V11.9268H45.2881C46.2998 11.9268 47.0859 11.6123 47.6465 10.9834C48.2116 10.3545 48.4941 9.45898 48.4941 8.29688V7.71582C48.4941 6.58561 48.2275 5.70833 47.6943 5.08398C47.1657 4.45508 46.4137 4.13607 45.4385 4.12695H43.9072ZM58.1875 8.56348C57.0618 8.23991 56.2415 7.84342 55.7266 7.37402C55.2161 6.90007 54.9609 6.31673 54.9609 5.62402C54.9609 4.84017 55.2731 4.19303 55.8975 3.68262C56.5264 3.16764 57.3421 2.91016 58.3447 2.91016C59.0283 2.91016 59.6367 3.04232 60.1699 3.30664C60.7077 3.57096 61.1224 3.93555 61.4141 4.40039C61.7103 4.86523 61.8584 5.37337 61.8584 5.9248H60.5391C60.5391 5.32324 60.3477 4.85156 59.9648 4.50977C59.582 4.16341 59.042 3.99023 58.3447 3.99023C57.6976 3.99023 57.1917 4.13379 56.8271 4.4209C56.4671 4.70345 56.2871 5.09766 56.2871 5.60352C56.2871 6.00911 56.458 6.35319 56.7998 6.63574C57.1462 6.91374 57.7318 7.16895 58.5566 7.40137C59.3861 7.63379 60.0332 7.89128 60.498 8.17383C60.9674 8.45182 61.3138 8.77767 61.5371 9.15137C61.765 9.52507 61.8789 9.96484 61.8789 10.4707C61.8789 11.2773 61.5645 11.9245 60.9355 12.4121C60.3066 12.8952 59.4658 13.1367 58.4131 13.1367C57.7295 13.1367 57.0915 13.0068 56.499 12.7471C55.9066 12.4827 55.4486 12.1227 55.125 11.667C54.806 11.2113 54.6465 10.694 54.6465 10.1152H55.9658C55.9658 10.7168 56.1868 11.193 56.6289 11.5439C57.0755 11.8903 57.6702 12.0635 58.4131 12.0635C59.1058 12.0635 59.6367 11.9222 60.0059 11.6396C60.375 11.3571 60.5596 10.972 60.5596 10.4844C60.5596 9.99674 60.3887 9.62077 60.0469 9.35645C59.7051 9.08757 59.0853 8.82324 58.1875 8.56348ZM69.0635 10.4023H64.8936L63.957 13H62.6035L66.4043 3.04688H67.5527L71.3604 13H70.0137L69.0635 10.4023ZM65.29 9.32227H68.6738L66.9785 4.66699L65.29 9.32227ZM78.1963 10.4023H74.0264L73.0898 13H71.7363L75.5371 3.04688H76.6855L80.4932 13H79.1465L78.1963 10.4023ZM74.4229 9.32227H77.8066L76.1113 4.66699L74.4229 9.32227ZM85.4834 8.97363H83.1455V13H81.8262V3.04688H85.1211C86.2422 3.04688 87.1035 3.30208 87.7051 3.8125C88.3112 4.32292 88.6143 5.06576 88.6143 6.04102C88.6143 6.66081 88.4456 7.20085 88.1084 7.66113C87.7757 8.12142 87.3109 8.46549 86.7139 8.69336L89.0518 12.918V13H87.6436L85.4834 8.97363ZM83.1455 7.90039H85.1621C85.8138 7.90039 86.3311 7.73177 86.7139 7.39453C87.1012 7.05729 87.2949 6.60612 87.2949 6.04102C87.2949 5.42578 87.1104 4.9541 86.7412 4.62598C86.3766 4.29785 85.848 4.13151 85.1553 4.12695H83.1455V7.90039ZM96.0859 8.39941H91.7725V11.9268H96.7832V13H90.46V3.04688H96.7148V4.12695H91.7725V7.32617H96.0859V8.39941ZM100.112 3.04688L103.366 11.168L106.62 3.04688H108.322V13H107.01V9.12402L107.133 4.94043L103.865 13H102.86L99.5996 4.96094L99.7295 9.12402V13H98.417V3.04688H100.112ZM116.259 10.4023H112.089L111.152 13H109.799L113.6 3.04688H114.748L118.556 13H117.209L116.259 10.4023ZM112.485 9.32227H115.869L114.174 4.66699L112.485 9.32227ZM125.392 10.4023H121.222L120.285 13H118.932L122.732 3.04688H123.881L127.688 13H126.342L125.392 10.4023ZM121.618 9.32227H125.002L123.307 4.66699L121.618 9.32227ZM136.151 8.97363H133.813V13H132.494V3.04688H135.789C136.91 3.04688 137.771 3.30208 138.373 3.8125C138.979 4.32292 139.282 5.06576 139.282 6.04102C139.282 6.66081 139.114 7.20085 138.776 7.66113C138.444 8.12142 137.979 8.46549 137.382 8.69336L139.72 12.918V13H138.312L136.151 8.97363ZM133.813 7.90039H135.83C136.482 7.90039 136.999 7.73177 137.382 7.39453C137.769 7.05729 137.963 6.60612 137.963 6.04102C137.963 5.42578 137.778 4.9541 137.409 4.62598C137.045 4.29785 136.516 4.13151 135.823 4.12695H133.813V7.90039ZM146.624 10.4023H142.454L141.518 13H140.164L143.965 3.04688H145.113L148.921 13H147.574L146.624 10.4023ZM142.851 9.32227H146.234L144.539 4.66699L142.851 9.32227ZM154.431 3.04688H155.75V10.0947C155.75 11.0472 155.463 11.7923 154.889 12.3301C154.319 12.8678 153.558 13.1367 152.605 13.1367C151.617 13.1367 150.846 12.8838 150.295 12.3779C149.743 11.8721 149.468 11.1634 149.468 10.252H150.78C150.78 10.8216 150.935 11.266 151.245 11.585C151.56 11.904 152.013 12.0635 152.605 12.0635C153.148 12.0635 153.585 11.8926 153.918 11.5508C154.255 11.209 154.426 10.7305 154.431 10.1152V3.04688ZM163.331 10.4023H159.161L158.225 13H156.871L160.672 3.04688H161.82L165.628 13H164.281L163.331 10.4023ZM159.558 9.32227H162.941L161.246 4.66699L159.558 9.32227ZM166.968 13V3.04688H169.777C170.643 3.04688 171.409 3.23828 172.074 3.62109C172.74 4.00391 173.252 4.5485 173.612 5.25488C173.977 5.96126 174.161 6.77246 174.166 7.68848V8.32422C174.166 9.26302 173.984 10.0856 173.619 10.792C173.259 11.4984 172.742 12.0407 172.067 12.4189C171.397 12.7972 170.616 12.9909 169.723 13H166.968ZM168.28 4.12695V11.9268H169.661C170.673 11.9268 171.459 11.6123 172.02 10.9834C172.585 10.3545 172.867 9.45898 172.867 8.29688V7.71582C172.867 6.58561 172.601 5.70833 172.067 5.08398C171.539 4.45508 170.787 4.13607 169.812 4.12695H168.28Z" fill="white"/>
<path d="M181 7.5C180.448 7.5 180 7.94772 180 8.5C180 9.05228 180.448 9.5 181 9.5V7.5ZM189.5 8.5L190.207 9.20711C190.598 8.81658 190.598 8.18342 190.207 7.79289L189.5 8.5ZM185.293 11.2929C184.902 11.6834 184.902 12.3166 185.293 12.7071C185.683 13.0976 186.317 13.0976 186.707 12.7071L185.293 11.2929ZM186.707 4.29289C186.317 3.90237 185.683 3.90237 185.293 4.29289C184.902 4.68342 184.902 5.31658 185.293 5.70711L186.707 4.29289ZM181 9.5H189.5V7.5H181V9.5ZM188.793 7.79289L185.293 11.2929L186.707 12.7071L190.207 9.20711L188.793 7.79289ZM190.207 7.79289L186.707 4.29289L185.293 5.70711L188.793 9.20711L190.207 7.79289Z" fill="white"/>
</svg>
